<svg xmlns="http://www.w3.org/2000/svg" xmlns:xlink="http://www.w3.org/1999/xlink">
    <symbol id="baishi-logo" viewBox="0 0 180 60">
        <path d="M47.53,31.69a2.61,2.61,0,0,1-.28-1.53c.39-2.83.86-5.65,1.36-8.89a5.46,5.46,0,0,0-1-1.28c-3.93-3.15-7.93-6.22-11.84-9.39a1.73,1.73,0,0,0-2.61,0C27.44,15.32,21.64,20,15.85,24.65a2,2,0,0,0-.81,2c.2,1.32.24,2.66.35,4,.27,3.26.5,6.52.86,9.77A2.18,2.18,0,0,0,17.31,42q9.63,4,19.33,7.93a2.5,2.5,0,0,0,1.91-.17c4.41-2.52,8.77-5.13,13.18-7.66,1.05-.61,1.17-1.24.57-2.24Q49.86,35.77,47.53,31.69ZM38.16,14.83c1,.72,1.9,1.43,2.84,2.16,1.73,1.37,3.46,2.74,5.18,4.13.25.21.6.57.57.82-.26,2-.6,4-.92,6.07l-.3.09L38,15Zm7,16.21L34.71,38.36l-.22-.13,5.94-15.51ZM34.47,12.52,39,20.31,27.27,25.53l-.16-.24ZM30.74,14.9l.2.21c-2.07,3.59-4.13,7.19-6.23,10.76-.17.29-.63.65-.89.61-1.89-.32-3.75-.74-5.9-1.18ZM17.67,37.65l-.82-10.82,6.65,1.42L18,37.74Zm3.65-2.55c1.15-2,2.28-4,3.51-5.94a4.25,4.25,0,0,1,1.65-1.53C30,26,33.54,24.42,37.07,22.84c.41-.18.84-.34,1.62-.65C38,24,37.53,25.41,37,26.82c-1.54,4-3.12,8.06-4.62,12.12a1.48,1.48,0,0,1-1.66,1.18c-4-.07-7.93,0-12.22,0C19.52,38.26,20.41,36.68,21.32,35.1Zm1,7,0-.31h4.7c1.61,0,3.51-.46,4.75.24s1.8,2.58,2.65,3.94c.22.35.41.71.83,1.44Zm15.5,6c-1.26-2.08-2.43-4-3.72-6.18H48.37Zm-2.41-8.14,6.67-4.8c1-.69,1.9-1.46,2.92-2.05.33-.19,1.18-.12,1.33.12,1.33,2.15,2.55,4.36,3.9,6.73Zm93.88-11.7h-7.21V15.08h-2.66V45h2.66V30.62h7.21V45H132V15.08h-2.66ZM136.92,45h2.66V15.08h-2.66ZM83.78,15,78.45,44.92V45H81l1-6.65h6l1,6.65H91.7L86.4,15ZM82.41,36l2.64-16.21L87.67,36Zm30.25-20.91h-7.54a2.1,2.1,0,0,0-1.54.59,2,2,0,0,0-.6,1.53v6.06a3.5,3.5,0,0,0,.86,2.28l8.26,10v7.13h-6.46V35.29H103v7.59a2.07,2.07,0,0,0,.6,1.53,2.14,2.14,0,0,0,1.54.59h7.54a2.07,2.07,0,0,0,1.52-.59,2.1,2.1,0,0,0,.58-1.53V36a3.41,3.41,0,0,0-.82-2.24l-8.3-10V17.43h6.46v6.73h2.66v-7a2.07,2.07,0,0,0-.58-1.53A2,2,0,0,0,112.66,15.08ZM74,30.79l-2.25-1.45,2.1-1.26a2.42,2.42,0,0,0,1.07-2V17.2a2,2,0,0,0-2.12-2.12H63V45h9.87A2,2,0,0,0,75,42.88V32.71A2.09,2.09,0,0,0,74,30.79ZM65.66,17.43h6.58v9l-2.66,1.8H65.66Zm6.65,25.22H65.66V30.54h4l2.69,1.76ZM95.45,45h2.66V15.08H95.45Zm57.84-18.85h9.42v1h1.18V15.24h-6.76c.3-.62.6-1.25.9-1.91L156.77,13a20.76,20.76,0,0,1-.88,2.24h-3.78V27.16h1.18Zm0-9.84h9.42v3.78h-9.42Zm0,4.82h9.42v3.95h-9.42ZM165,33.05V32H151.49v1.07h4.66A19.84,19.84,0,0,1,151,40a7.3,7.3,0,0,1,.65,1.09,24.89,24.89,0,0,0,2.55-2.7V45h1.13V43.67h7.36v1.27h1.13V36.69h-8.35a22.89,22.89,0,0,0,2-3.64Zm-2.37,4.7V42.6H155.3V37.75Z" fill="#fff" />
    </symbol>
    <use xlink:href="#baishi-logo" x="0" y="0" width="180" height="60" />
</svg>